<svg xmlns="http://www.w3.org/2000/svg" id="Loghi_Naturwaren_-_vettoriale" data-name="Loghi_Naturwaren - vettoriale" width="249.754" height="55.9" viewBox="0 0 249.754 55.9"><path id="Tracciato_1" data-name="Tracciato 1" d="M149.046,61.361v-.734h-.871c-1.3,0-1.573-1.332-1.573-2.581V46.261l10.972,15.1h4.56v-14.8c0-2.226-.027-3.284,1.386-3.284h.816V42.54h-5.6v.734h.543c1,0,1.847.6,1.847,1.359v7.985L153.77,42.545H143.45v.7h.41c.839,0,1.277.789,1.792,1.468V58.05c0,1.25-.351,2.581-1.519,2.581h-.68v.734h5.6Z" transform="translate(-78.053 -23.172)"></path><path id="Tracciato_2" data-name="Tracciato 2" d="M200.075,60.767h-1.332a21.292,21.292,0,0,0-3.2.214c-3.8.515-4.752,2.362-4.752,4.155,0,2.417,2.171,3.315,4.237,3.315a6.81,6.81,0,0,0,5.267-1.874c.7,1.519,1.929,1.874,3.475,1.874a5.616,5.616,0,0,0,4.237-1.71v-.949c-.324.324-.6.707-1.113.707-.351,0-.461-.351-.461-.652V58.569c0-2.039-1.14-2.827-2.932-3.233a24.294,24.294,0,0,0-4.884-.515c-6.084,0-6.763,1.765-6.763,2.96,0,1.6,1.655,2.148,2.987,2.148,1.441,0,3.612-.3,3.612-2.175,0-1.222-1-1.546-1-1.9,0-.246.6-.3,1.085-.3,1.25,0,1.551.433,1.551,1.655v3.562Zm0,3.366c0,1,.082,2.713-1.414,2.713-1.085,0-1.031-1.464-1.031-2.253,0-1.25-.219-3.179,1.469-3.179h.976Z" transform="translate(-103.804 -29.851)"></path><path id="Tracciato_3" data-name="Tracciato 3" d="M237.229,45.17c-1.71,2.768-4.373,4.779-7.739,4.779V50.6h1.6v8.145c0,3.53.816,4.456,4.1,4.456,3.5,0,5.7-1.113,5.974-4.916h-.6c-.137,1.058-.679,3.288-2.066,3.288-.812,0-.762-.789-.762-1.386V50.6h3.069v-.652H237.74V45.17h-.515Z" transform="translate(-124.855 -24.602)"></path><path id="Tracciato_4" data-name="Tracciato 4" d="M275.292,67.448h-1.519V54.93c-2.663.082-5.295.324-7.958.324v.652h1.441v7.9c0,1-.328,2.878-1.655,2.878a.955.955,0,0,1-.976-1.085V54.93c-2.663.082-5.322.324-7.985.324v.652h1.441v7.383c0,4.182,1.546,5.217,4.424,5.217a5.7,5.7,0,0,0,4.971-2.609v2.554c2.6-.082,5.213-.356,7.821-.356v-.652Z" transform="translate(-139.623 -29.911)"></path><path id="Tracciato_5" data-name="Tracciato 5" d="M301.061,55.911V67.453H299.62v.652h10.047v-.652h-1.929V61.205a8.714,8.714,0,0,1,.3-3.151c.082-.269.9-1.82,1.3-1.14a5.128,5.128,0,0,0-.16,1.277,2.851,2.851,0,0,0,3.042,2.987A3.084,3.084,0,0,0,315.4,58a3.233,3.233,0,0,0-3.5-3.014,4.869,4.869,0,0,0-4.374,2.686h-.055V54.93c-2.608.082-5.24.324-7.849.324v.652h1.441Z" transform="translate(-163.003 -29.911)"></path><path id="Tracciato_6" data-name="Tracciato 6" d="M336.1,56.3h1.359l4.8,12.19h4.752l2.2-5.728,2.226,5.728h4.51l3.667-9.586c.465-1.222.953-2.6,2.526-2.6V55.65h-4.155v.68h.52c.461,0,1.113.379.406,2.225l-2.362,6.138L353.32,56.3h1.519V55.65h-9.23V56.3H346.8l2.007,5.4-1.222,3.179-3.416-8.578h.867v-.652H336.1v.652Z" transform="translate(-182.846 -30.303)"></path><path id="Tracciato_7" data-name="Tracciato 7" d="M405.125,60.767H403.8a21.352,21.352,0,0,0-3.206.214c-3.8.515-4.752,2.362-4.752,4.155,0,2.417,2.171,3.315,4.237,3.315a6.81,6.81,0,0,0,5.267-1.874c.711,1.519,1.929,1.874,3.48,1.874a5.609,5.609,0,0,0,4.237-1.71v-.949c-.328.324-.6.707-1.113.707-.356,0-.461-.351-.461-.652V58.569c0-2.039-1.14-2.827-2.932-3.233a24.3,24.3,0,0,0-4.889-.515c-6.084,0-6.759,1.765-6.759,2.96,0,1.6,1.655,2.148,2.987,2.148,1.441,0,3.612-.3,3.612-2.175,0-1.222-1.008-1.546-1.008-1.9,0-.246.6-.3,1.09-.3,1.25,0,1.546.433,1.546,1.655v3.562Zm0,3.366c0,1,.082,2.713-1.414,2.713-1.085,0-1.031-1.464-1.031-2.253,0-1.25-.219-3.179,1.469-3.179h.976Z" transform="translate(-215.342 -29.851)"></path><path id="Tracciato_8" data-name="Tracciato 8" d="M436.691,55.911V67.453H435.25v.652H445.3v-.652h-1.929V61.205a8.715,8.715,0,0,1,.3-3.151c.082-.269.894-1.82,1.3-1.14a5.347,5.347,0,0,0-.16,1.277,2.851,2.851,0,0,0,3.042,2.987A3.084,3.084,0,0,0,451.034,58a3.236,3.236,0,0,0-3.5-3.014,4.869,4.869,0,0,0-4.373,2.686H443.1V54.93c-2.609.082-5.24.324-7.849.324v.652H436.7Z" transform="translate(-236.779 -29.911)"></path><path id="Tracciato_9" data-name="Tracciato 9" d="M486.133,62.477c.055-4.807-3.2-7.657-7.9-7.657-4.1,0-7.684,2.472-7.684,6.818a6.158,6.158,0,0,0,3.963,6.084,10.823,10.823,0,0,0,4.456.734,7.767,7.767,0,0,0,6.845-3.448l-.52-.356a6.411,6.411,0,0,1-4.971,2.85c-2.522,0-2.932-1.71-2.932-3.881v-1.14h8.742Zm-8.742-.652V58.076c0-.839-.137-2.6,1.113-2.6,1.437,0,1.222,1.655,1.222,2.6v3.749Z" transform="translate(-255.98 -29.851)"></path><path id="Tracciato_10" data-name="Tracciato 10" d="M514.83,54.875c-2.663.082-5.322.324-7.985.324v.652h1.441V67.393h-1.5v.652h8.989v-.652h-.949V59.38c0-.866.488-2.581,1.655-2.581s.98,1.546.98,2.39v8.2h-.953v.652h8.934v-.652h-1.464V59.846c0-3.94-1.847-5.026-4.4-5.026a5.652,5.652,0,0,0-4.752,2.609Z" transform="translate(-275.693 -29.851)"></path><path id="Tracciato_11" data-name="Tracciato 11" d="M11.18,95.9a11.16,11.16,0,0,0,1.044,2.221s.6-1.195,1.186-1.455,1.058-.16,1.578-.748l.018-.018Zm5.4,0c-.046.178-.123.451-.21.684a3.817,3.817,0,0,1-.324.634s-.342-.611-.862-.588c-.616.032-1.911.6-1.45,2.463a3.046,3.046,0,0,0,.748,1.268c.451.584.862,1.031.862,1.031a1.311,1.311,0,0,1,.584-.634c.456-.26,1.268-.752,1.468-1.414a1.422,1.422,0,0,0-1.04-1.774s.178-.652.246-.835a5.377,5.377,0,0,1,.292-.57s.488.8.994,1.5.894,1.19.962,1.318.114.16.032.342a3.318,3.318,0,0,0-.2.734c-.014.16-.032.274-.032.274a1.409,1.409,0,0,0-.944-.032A1.076,1.076,0,0,0,17,101.782a3.075,3.075,0,0,0,1.177,1.391,7.487,7.487,0,0,1,.711.679,3.334,3.334,0,0,1,.716-.88,1.227,1.227,0,0,0,.6-1.154,1.383,1.383,0,0,0-1.218-1.14s0-.388.014-.648a1.483,1.483,0,0,1,.2-.552s.6.584,1.122,1.19,1.222,1.172,1.272,1.3a1.592,1.592,0,0,1,.114.634c-.014.246-.046.634-.046.634a.739.739,0,0,0-.78-.128.72.72,0,0,0-.392,1.072c.26.47.634.584,1.008.962s.716.7.716.7.36-.648.57-.944a.933.933,0,0,0,.123-1.095,1.289,1.289,0,0,0-.99-.451,5.22,5.22,0,0,0,.018-.584c-.018-.21,0-.292.082-.31s.246.082.716.461,1.368,1.022,1.532,1.154.182.146.164.292a6.185,6.185,0,0,0,.055.739.475.475,0,0,0-.438-.087.492.492,0,0,0-.187.78,3.8,3.8,0,0,0,.748.7,5.655,5.655,0,0,0,.488.406,3.315,3.315,0,0,1,.538-.57c.242-.178.388-.383.265-.661a.983.983,0,0,0-.638-.451,4.033,4.033,0,0,0-.57-.109,1.3,1.3,0,0,1-.018-.356,1.26,1.26,0,0,0-.014-.36,2.276,2.276,0,0,1,.57.278,9.521,9.521,0,0,0,1.108.734,8.836,8.836,0,0,1,.912.406,2.92,2.92,0,0,1,.082.575.628.628,0,0,0-.52.1c-.178.178-.114.62.438.88a3.641,3.641,0,0,0,1.058.31.949.949,0,0,0,.1-.5c-.068-.424-.88-.734-.88-.734l-.05-.552a10.123,10.123,0,0,0,1.532.7c.7.228,1.678.438,1.678.438s-.214.812.488.994a1.433,1.433,0,0,0,1.268-.178,3.662,3.662,0,0,1,.7-.246,2.4,2.4,0,0,1-.584-.6c-.2-.324-.534-.958-1.076-1.026-.894-.114-.766.766-.766.766s-.976-.16-1.6-.342a7.753,7.753,0,0,1-1.464-.7s.292-.146.438-.2a1.668,1.668,0,0,1,.31-.068s.392.488.7.42.456-.748.456-.748a1.23,1.23,0,0,1-.392-.21.813.813,0,0,0-.634-.292.369.369,0,0,0-.3.584,1.658,1.658,0,0,1-.342.2,3.7,3.7,0,0,1-.456.146,5.659,5.659,0,0,1-1.336-.584,6.853,6.853,0,0,1-1.122-.88,2.91,2.91,0,0,1,.278-.132c.1-.032.324-.082.324-.082s.292.652.716.652.456-.228.62-.406a1.511,1.511,0,0,1,.438-.3,3.12,3.12,0,0,0-.62-.7c-.342-.26-.607-.5-.962-.41-.634.164-.36.926-.36.926a.539.539,0,0,1-.324.178,2.512,2.512,0,0,1-.47.05,3.033,3.033,0,0,1-.912-.584c-.374-.379-1.336-1.45-1.336-1.45s.31-.05.506-.064a4.416,4.416,0,0,1,.57.014s-.018.748.552.912.666-.36.862-.6a1.86,1.86,0,0,1,.438-.392s-.652-1.186-1.318-1.2c-1.14-.032-.734.944-.734.944a2.272,2.272,0,0,1-.6.114,3.072,3.072,0,0,1-.616-.032,15.445,15.445,0,0,1-1.172-1.222A10.059,10.059,0,0,1,20,99.132a7.884,7.884,0,0,1,.812.018c.246.032.356.05.356.05s-.114.944.328,1.14a1.817,1.817,0,0,0,1.336-.2c.406-.146.83-.324.83-.324l.2-.082s-.374-.406-.8-.894-.766-1.108-1.24-1.126a1.022,1.022,0,0,0-.944.57,1.816,1.816,0,0,0,.1.6s-.442-.014-.634-.032a1.1,1.1,0,0,1-.8-.324,22.92,22.92,0,0,1-1.318-2.052,4.408,4.408,0,0,1-.315-.57H16.584Zm2.645,0a.749.749,0,0,0,.046,1.167,1.56,1.56,0,0,0,1.952.082,2.379,2.379,0,0,1,.73-.406c.182-.018.36-.018.36-.018a2.552,2.552,0,0,0-.328-.479,2.944,2.944,0,0,1-.274-.351H19.229Zm4.036,0a4.475,4.475,0,0,0,.119,1.318,4.2,4.2,0,0,0,.825,1.473,4.1,4.1,0,0,0,.976.88,3.762,3.762,0,0,1,1.076-.853,4.134,4.134,0,0,0,1.71-1.2,1.663,1.663,0,0,0,.041-1.605l-4.747-.009Zm5.764,0c.292.62.78,1.24.825,1.373a1.2,1.2,0,0,1,.023.538c-.023.219-.023.83-.023,1.049s.023.388-.169.438-.465-.269-.83-.269-1.9.538-1.71,1.806a3.058,3.058,0,0,0,1.222,2.3,5.6,5.6,0,0,1,1.268.853,9.21,9.21,0,0,0,1.222,1.053.783.783,0,0,0,.543.132,2.006,2.006,0,0,1-.132-.894,7.1,7.1,0,0,1,.9-1.245,2.229,2.229,0,0,0,.246-2.321,1.783,1.783,0,0,0-2-.853s-.046-.269-.119-.707a2.12,2.12,0,0,1-.027-.857c.05-.146.1-.342.1-.342a9.893,9.893,0,0,0,1.61,1.318c.853.538,1.61.88,2,1.172a1.776,1.776,0,0,1,.734.953c.1.369.246.88.246.88a1.709,1.709,0,0,0-1.514.853,2.39,2.39,0,0,0,.511,2.928,12.311,12.311,0,0,0,1.733.9,5.192,5.192,0,0,0,1.856.93,9.1,9.1,0,0,0,1.833-.219s-.962-.93-1.026-1.364a4.248,4.248,0,0,1,.242-1.833,1.9,1.9,0,0,0-.9-2.2,2.571,2.571,0,0,0-2.1.146,2.033,2.033,0,0,1-.488-.734c-.123-.388-.246-.9-.246-.9a8.428,8.428,0,0,0,2.075.292c1.072,0,2.321-.073,2.563-.073a1.45,1.45,0,0,1,.88.369c.219.219.634.684.634.684s-1.391.2-1.391,1.218a3.15,3.15,0,0,0,2.686,2.736c2.859.246,4.027-.757,4.027-.757s-1.172-.392-1.122-1.149.242-2.061-.511-2.736c-1.733-1.537-3.174.415-3.174.415a3.3,3.3,0,0,1-.634-.319,1.117,1.117,0,0,1-.465-.538c-.027-.146.1-.2.319-.269s.976-.269,2.052-.684,1.514-.684,1.756-.78a2.1,2.1,0,0,1,.9-.1,5.161,5.161,0,0,1,1.514.511s-.707.342-.78.807a2.282,2.282,0,0,0,.88,1.71,4.214,4.214,0,0,0,3.908-.05c1.587-.93,1.856-1.272,1.929-1.418s-.073-.242-.269-.319a3.349,3.349,0,0,1-1.368-1.514,2.007,2.007,0,0,0-1.491-1.391,2.3,2.3,0,0,0-1.756.538c-.3.392-.784,1.149-.784,1.149a6.874,6.874,0,0,1-.757-.146,7.552,7.552,0,0,1-.83-.292A17.924,17.924,0,0,0,47.7,97.295c.547-.47,1.145-.99,1.637-1.4H47.094a9.763,9.763,0,0,1-1.587,1.035A13.151,13.151,0,0,1,42.989,98.1c-.146,0-.292-.269-.2-.634s.292-1.172.511-1.172a1.932,1.932,0,0,0,1.318.027,1.414,1.414,0,0,0,.6-.433l-4.465.009a1.024,1.024,0,0,0,.835.616c.246.023.707-.219.88-.219s.342.146.246.465-.2,1.514-.807,1.683a10.911,10.911,0,0,1-4.223.588,9,9,0,0,1-3.813-1.245.4.4,0,0,1-.123-.488,4.542,4.542,0,0,1,1.2-.88c.173,0,.342.342.465.661a1.577,1.577,0,0,0,1.783.73c1.122-.146,2.175-1.049,2.1-1.879V95.89l-5.044.014a1.356,1.356,0,0,0,.433.246s-.465.342-.707.515-.83.511-.83.511a6.083,6.083,0,0,1-1.482-1.268H29.03Zm22.51,0a.738.738,0,0,0,.073.52,2.094,2.094,0,0,0,2.321,1.268c1.172-.319,1.286-.4,1.756-.511A2.947,2.947,0,0,0,57.2,95.9Z" transform="translate(-6.105 -52.191)"></path><path id="Tracciato_12" data-name="Tracciato 12" d="M8.953,43.782c1.19-1.377-.88-2.175-.88-2.175l.67-1.213s.524,1.008.976,1.774a16.187,16.187,0,0,1,.848,1.414,1.44,1.44,0,0,1-.032.192h1.327a.176.176,0,0,1,0-.173.457.457,0,0,1,.552-.182,5.853,5.853,0,0,1,.816.31.437.437,0,0,0-.059.05h2.49a3.729,3.729,0,0,1-.31-.579c-.2-.442-.315-.981-1-1.076a.914.914,0,0,0-1.149,1.149,2.725,2.725,0,0,1-.807-.146c-.415-.146-.588-.2-.757-.246a.988.988,0,0,0-.219-.05,5.046,5.046,0,0,1-.584-1.049c-.292-.684-.684-1.491-.684-1.587s.023-.2.146-.219a1.971,1.971,0,0,1,1.049.173,2,2,0,0,0,.219,1.218,1.909,1.909,0,0,0,1.195.661c.246-.05.488-.392.707-.611a2.822,2.822,0,0,1,.953-.561,2.758,2.758,0,0,1,.511-.05,3.68,3.68,0,0,0-.611-1.026c-.342-.342-.684-.584-.83-.757a1.564,1.564,0,0,0-1.076-.634c-1.587.023-1.076,1.318-1.076,1.318a3.265,3.265,0,0,1-.734,0c-.292-.05-.584,0-.734-.292a26.386,26.386,0,0,1-.926-2.568,10.294,10.294,0,0,1-.511-2.125.426.426,0,0,1,.246-.342c.415-.1,1.172.369,1.172.369A2.032,2.032,0,0,0,9.682,36.5c.575,1.286,1.455,1.92,2.44,1.3a7.537,7.537,0,0,1,1.833-1,4.75,4.75,0,0,1,.661,0,3.618,3.618,0,0,0-.538-1.806c-.515-.68-1.318-1.464-1.587-1.756A1.681,1.681,0,0,0,10.95,32.6a1.172,1.172,0,0,0-.976,1.833,5.067,5.067,0,0,1-1.2-.392c-.269-.2-.461-.073-.611-1.1a17.965,17.965,0,0,1-.2-2.344,29.68,29.68,0,0,1,.2-3.078,3.276,3.276,0,0,1,.561.3,1.708,1.708,0,0,1,.611.684,1.606,1.606,0,0,0-.661.976,2.122,2.122,0,0,0,1.076,2.148,2.421,2.421,0,0,0,2.271.2,1.846,1.846,0,0,1,1.172-.146c.319.1,1.245.561,1.245.561s-.319-3.347-1.076-4.373-1.92-2-2.905-1.61c-.775.3-.88,1.637-.88,1.637a4.543,4.543,0,0,1-.83-.488,1.049,1.049,0,0,1-.319-1.172,12.55,12.55,0,0,1,1.906-3.908c1.026-1.245,1.906-2.171,2.271-2.125s.561.634.488.9-.123.319-.538.388a2.259,2.259,0,0,0-1.3.83,3.385,3.385,0,0,0-.05,2.367,2.233,2.233,0,0,0,1.245,1.076,1.9,1.9,0,0,1,.707.415,4.778,4.778,0,0,0,1.2.734,2.136,2.136,0,0,0,.949.1,1.785,1.785,0,0,1-.023-1.172,15.8,15.8,0,0,1,1.172-1.952,2.838,2.838,0,0,0,.392-2.271,1.623,1.623,0,0,0-1.368-1.268,3.591,3.591,0,0,0-1.929.684.915.915,0,0,1-.365-.611c-.023-.365-.123-.511.219-.807a6.038,6.038,0,0,1,3.758-1.049,7.887,7.887,0,0,1,6.129,3.32s-.365.292-.584.465l-.634.488s-.734-1.76-1.979-1.76a2.388,2.388,0,0,0-2.125,1.368A5.407,5.407,0,0,0,17.9,23.67a3.409,3.409,0,0,1-.438,1.049,3.016,3.016,0,0,0-.538,1.122,5.4,5.4,0,0,0-.073,1.049,17.224,17.224,0,0,1,2.1-.415,2.907,2.907,0,0,1,1.514.369,2.887,2.887,0,0,0,2.1-.123c.661-.365,1.3-.953,1-1.806a3.836,3.836,0,0,0-1.245-1.541,3.845,3.845,0,0,1,.9-.707c.415-.2.538-.1.684.1a35.451,35.451,0,0,1,2,4.419,2.289,2.289,0,0,1-.073,1.3c-.2.319-.515,1.195-1.222,1.468a7.233,7.233,0,0,1-1.318.342c-.269.073-.707.219-.707.219a2.252,2.252,0,0,0,.292-1.368,1.708,1.708,0,0,0-1.833-1.222,3.654,3.654,0,0,0-2.586.707c-.561.515-1.245,1.177-1.564,1.441a3.225,3.225,0,0,0-1.049,1.345c-.246.661-.319,1.049-.05,1.1a4.717,4.717,0,0,0,1.149-.023,1.226,1.226,0,0,1,.9.2,7.584,7.584,0,0,0,2.563,1.222,2,2,0,0,0,1.979-.807c.319-.588.392-.853.269-1.2s-.219-.534-.123-.707a1.659,1.659,0,0,1,1.1-.442,4.661,4.661,0,0,1,.807.073s-.488.88-.78,1.592-.734,1.852-.88,2.171a3.313,3.313,0,0,1-1.1,1.076c-.392.219-1.172.538-1.172.538a1.66,1.66,0,0,0-.561-1.318,3.622,3.622,0,0,0-2.905-.269,2.913,2.913,0,0,0-1.3,2.148,5.591,5.591,0,0,1-.269,1.222,2.5,2.5,0,0,0-.023,1.391c.146.588.219.93.219.93a3.384,3.384,0,0,1,.93-.3,7.028,7.028,0,0,0,1.783.269,3.481,3.481,0,0,0,2.367-1.268c.465-.711-.415-2.075-.415-2.075a4.643,4.643,0,0,0,.78-.342,2.256,2.256,0,0,1,.926-.392c.123.046.219.242.073.584a5.649,5.649,0,0,0-.292,1.687,8.3,8.3,0,0,1-.073,1.318,4.406,4.406,0,0,1-1.268,2.052,1.867,1.867,0,0,0-1.345-.661,2.541,2.541,0,0,0-1.879,1.906c-.027.187-.055.429-.068.693l4.747.014a3.177,3.177,0,0,0-1.09-1.14,3.73,3.73,0,0,1,.342-.661c.219-.342.461-.73.634-.757s.415.146.488.611a9.231,9.231,0,0,0,.561,1.756c.023.064.05.123.078.187h2.641a5.068,5.068,0,0,1-1.108-2.116,8.527,8.527,0,0,1,.438-5.272c.123-.2.246-.05.415,0a6.291,6.291,0,0,1,.857.538,2.38,2.38,0,0,0-.488,1.929,1.638,1.638,0,0,0,1.614,1.145,10.376,10.376,0,0,0,1.683-.707c.488-.169,1.391-.219,1.833-.319a6.622,6.622,0,0,0,1.391-.734,6.251,6.251,0,0,1-1.564-1.491c-.269-.584-.634-2.709-1.929-2.832s-1.783.465-1.979,1a7.568,7.568,0,0,0-.292,1.414,1.136,1.136,0,0,1-.684-.246,2.909,2.909,0,0,1-.465-.561A23.189,23.189,0,0,1,26.88,32.49c.78-1.195,1.464-2.029,1.464-2.029a11.153,11.153,0,0,1,1.491-.123,3.565,3.565,0,0,1,2,.269,4.339,4.339,0,0,1,.953,1.1.3.3,0,0,1-.365.2,1.4,1.4,0,0,0-1.291.219,2.388,2.388,0,0,0-.269,2.809,4.378,4.378,0,0,0,2.855,1.952A14.626,14.626,0,0,1,35.7,37.4a2.714,2.714,0,0,0,1.245.146c.292-.05.511-.146.438-.315s-.511-.415-.488-.857a15.93,15.93,0,0,0,.2-2.809A2.78,2.78,0,0,0,35.622,31.2c-.853-.292-1.391-.169-1.61.046s-.515.488-.684.415a5.907,5.907,0,0,1-.78-.976c-.123-.15-.173-.347.1-.415s1.929-.1,3.028-.169a4.841,4.841,0,0,1,1.883.023c.392.146,1.441.78,1.368.976s-.2.223-.584.415a1.48,1.48,0,0,0-.707,1.391,4.193,4.193,0,0,0,1,1.906,2.454,2.454,0,0,0,1.637.415,9.614,9.614,0,0,0,2.636-.807,5.118,5.118,0,0,0,1.587-1.1c.123-.2.1-.292-.023-.488a4.692,4.692,0,0,0-.757-.853,2.291,2.291,0,0,1-.588-1.026,2.347,2.347,0,0,0-.707-1.1,2.07,2.07,0,0,0-1.368-.611,1.206,1.206,0,0,0-1,.511,5.9,5.9,0,0,0-.438.93c-.05.119-.169.219-.292.169a5.453,5.453,0,0,1-.807-.611c-.146-.146-.392-.342-.292-.465s1.026-.369,2.171-1.1,1.76-1.3,2.025-1.368a2.328,2.328,0,0,1,1.245.146s-.976.88-.538,1.783.784,1.318,1.738,1.364a3.389,3.389,0,0,0,2.417-1.076c.511-.538.707-1.145,1.149-1.587a8.931,8.931,0,0,0,.78-.9,2.211,2.211,0,0,1-.9-.388c-.269-.269-1.368-1.441-1.979-1.541a2.012,2.012,0,0,0-1.56.315,8.5,8.5,0,0,0-.634,1.3.6.6,0,0,1-.561.315,2.977,2.977,0,0,1-.83-.169,9.916,9.916,0,0,0,1.514-2.125,4.647,4.647,0,0,1,.976-1.655,1.99,1.99,0,0,1,1.464-.538s-.146,1.833,1.514,1.956,1.979-1.687,2.029-2.221a12.194,12.194,0,0,1,.073-1.683,6.01,6.01,0,0,0,.319-1.318,1.688,1.688,0,0,0-.342-.757.822.822,0,0,1-.707.565,10.037,10.037,0,0,1-1.879-.2,1.529,1.529,0,0,0-1.149.634,1.468,1.468,0,0,0-.415,1.195,6.773,6.773,0,0,0,.442,1,1.532,1.532,0,0,1-.488.415c-.319.173-.661.392-.78.319s-.05-.342.05-1.341.073-2.175.073-2.175-.05-.169.219-.634A14.8,14.8,0,0,1,46.8,16.834s.88.953,1.245.981a2.228,2.228,0,0,0,1.487-.588,3.383,3.383,0,0,0,.611-.661,2.5,2.5,0,0,0,.269-1.514,4.862,4.862,0,0,1-.123-1.66,2.606,2.606,0,0,0-.242-1.829,6,6,0,0,0-1.026-1.268,2.74,2.74,0,0,1-.953,1.1c-.584.319-1.71.78-2.125,1.1a3.148,3.148,0,0,0-1,1.687,2.069,2.069,0,0,0,.611,1.66c.342.169.949.515.949.515s-.365.438-.584.734-.515.684-.515.684a14.077,14.077,0,0,0-.9-2.321A15.088,15.088,0,0,0,43.384,13.6a1.486,1.486,0,0,1-.269-.9,8.077,8.077,0,0,1,.315-1.222s.246.707,1.3.538a2.269,2.269,0,0,0,1.952-2.586A4,4,0,0,0,45.455,6.76c-.611-.534-1.122-.752-1.3-.949s-.465-.561-.465-.561A3.17,3.17,0,0,1,42.887,6.4,6.055,6.055,0,0,0,41.25,8.571a2.478,2.478,0,0,0,.219,1.856c.369.584.561.584.83.584a2.408,2.408,0,0,1,.757.246s-.169.584-.246.83-.2.392-.315.365-.082-.009-.374-.269a13.629,13.629,0,0,0-1.66-1.336A15.154,15.154,0,0,1,38.8,9.674a1.579,1.579,0,0,1-.324-.812c0-.228-.032-.976-.032-.976a.244.244,0,0,1,.324-.032,1.341,1.341,0,0,0,1.236.1,2.5,2.5,0,0,0,.584-3.68,10.854,10.854,0,0,0-4.615-2.969,2.749,2.749,0,0,0,.155.556,1.8,1.8,0,0,1,.146.862,11.255,11.255,0,0,1-.83,1.915,2.189,2.189,0,0,0,.164,2.344c.652.684.88.721,1.24.721s.616-.36.78-.2.456.228.424.684-.032,1.14-.032,1.14-2.244-1.008-3.452-1.5a8.084,8.084,0,0,1-1.92-.944,1.593,1.593,0,0,1-.616-1.336s.064-.132.292.032a.941.941,0,0,0,1.172.132,2.3,2.3,0,0,0,.912-1.724,1.952,1.952,0,0,0-.62-1.14c-.292-.36-.812-1.076-1.04-1.368A3.157,3.157,0,0,0,31.673.635C31.249.439,30.209.1,30.182.07a2.6,2.6,0,0,0,.073.789,2.32,2.32,0,0,1-.242,1.473c-.26.552-.848,1.4-.588,2.148s.488,1.008,1.076,1.076a2.055,2.055,0,0,0,1.076-.2.578.578,0,0,1,.228.424c0,.26.064.944.064.944s-.88-.132-1.528-.26-1.628-.392-1.952-.488a.958.958,0,0,1-.748-.552,3.06,3.06,0,0,1-.26-.716.846.846,0,0,0,1.012-.488,1.869,1.869,0,0,0-.132-2.28A7.571,7.571,0,0,0,25.234.476c-.36-.032-.488.164-.36.424a2.625,2.625,0,0,1,.1,1.272c-.064.42-.324.844-.392,1.236a1.035,1.035,0,0,0,.228.944c.26.356.748,1.1,1.2.88s.584-.456.748-.488a.272.272,0,0,1,.26.1,1.666,1.666,0,0,1,.2.424,1.438,1.438,0,0,1,.032.488s-1.24.032-1.92.064a3.232,3.232,0,0,1-1.956-.292,1.5,1.5,0,0,1-.584-.748.546.546,0,0,0,.684-.2,1.821,1.821,0,0,0-.132-1.893A1.6,1.6,0,0,0,22,2.04a2.8,2.8,0,0,1-.944-.26,1.991,1.991,0,0,0-.944-.128,1.265,1.265,0,0,0-.625.324c.114.173.465.456.465.848s-.228.976,0,1.368A2.873,2.873,0,0,0,21.1,5.3a1.072,1.072,0,0,0,.784,0c.164-.1.42-.26.42-.26s.424.228.456.388,0,.292-.392.328-1.692.26-2.148.292a1.346,1.346,0,0,1-1.081-.315,4.8,4.8,0,0,0-.734-.488s.853-.3.8-.78a1.7,1.7,0,0,0-1.341-1.172,5.924,5.924,0,0,0-2.49.342,2.233,2.233,0,0,0,.246.634,1.508,1.508,0,0,1,.219.711,1.238,1.238,0,0,0,.415.78c.246.219.488.488.807.465a1.232,1.232,0,0,0,.78-.442,2.153,2.153,0,0,1,.342-.319,1.4,1.4,0,0,1,.415.246c.246.2.415.342.415.342s-1.929.707-2.467.853-1.076.205-1.272.246a.725.725,0,0,1-.734-.415s.661-.1.734-.561S14.763,5.128,14.225,5.1a4.3,4.3,0,0,0-1.3.169,2.116,2.116,0,0,0-.78.246c-.123.123-.1.219-.1.219a.5.5,0,0,1,.538.2c.169.3.059.693.415,1A.778.778,0,0,0,14.2,6.865a2.389,2.389,0,0,1,.483.3c.1.114.1.2-.164.292s-.976.374-1.336.524a1.507,1.507,0,0,1-.944.178,4.8,4.8,0,0,1-.7-.178s.438-.132.52-.374a.757.757,0,0,0-.83-.8,3.448,3.448,0,0,0-1.564.716c-.132.146-.228.278-.228.278a.574.574,0,0,1,.31.242,4.447,4.447,0,0,0,.26.588c.132.178.41.31.588.178a5.075,5.075,0,0,0,.424-.392c.146-.132.228-.26.5-.2s.588.146.47.26A8.1,8.1,0,0,1,10.8,9.3c-.36.182-.976.461-1.172.556a.819.819,0,0,1-.876-.014s.388-.538.082-.734c-.538-.342-1.5.8-1.5.8s.374.83.766.6.456-.456.456-.456.716.1.342.342-1.058.716-1.45,1.008-.7.493-.7.493-.506-.721-.944-.6-.748,1.008-.848,1.318-.114.734-.2.894a.707.707,0,0,0-.046.406,1.638,1.638,0,0,0,.356-.114,5.943,5.943,0,0,1,1.236-.26,1.658,1.658,0,0,0,1.012-.47c.47-.456-.324-.9-.324-.9s.406-.36.6-.488.652-.424.652-.424l.944-.584a.92.92,0,0,1,.068.31.73.73,0,0,1-.032.132s-.041-.055-.21-.068c-.292-.014-.7.164-.748.374s.114.424.132.634-.219.57-.155.652A1.823,1.823,0,0,0,9.906,12.2c.734-.944-.31-1.09-.31-1.09a.551.551,0,0,1,.114-.652c.31-.274,1.45-1.026,1.728-1.2a4.392,4.392,0,0,1,.766-.342s.292-.082.1.392a2.816,2.816,0,0,1-.324.474s-.082-.114-.342-.05-.57.31-.47.588.242.424.21.634-.082.406-.082.406a1.628,1.628,0,0,0,1.172-.392c.488-.456.748-.83.47-1.008a.936.936,0,0,0-.62-.109,8.287,8.287,0,0,1,.424-.816c.2-.31-.018-.461.538-.67l.552-.21s.538-.178.862-.26a7.643,7.643,0,0,1,.926-.132,4.006,4.006,0,0,1-.146.734.864.864,0,0,1-.324.31.489.489,0,0,0-.534-.246c-.392.068-.488.31-.652.7a4.168,4.168,0,0,1-.52.83.952.952,0,0,0,1.122.392c.8-.21,1.1-.278,1.318-.634.374-.6-.36-.9-.36-.9a1.676,1.676,0,0,0,.324-.648c.05-.31.082-.552.082-.552a10.788,10.788,0,0,1,2.034-.734c.8-.146,1.323-.287,1.4-.064.146.424-.734,1.154-.734,1.154a.745.745,0,0,0-.684-.31,1.668,1.668,0,0,0-1.09,1.2,5.084,5.084,0,0,1-.488,1.222,5.765,5.765,0,0,0,2.2.032c.634-.265,1.058-.652,1.04-1.14s-.634-.9-.634-.9a9.2,9.2,0,0,0,.7-.944,4.106,4.106,0,0,0,.228-.506s1.6-.21,2.267-.228.985.018.994.278c.018.6-.67,1.122-.67,1.122a1.156,1.156,0,0,0-.894-.456A1.538,1.538,0,0,0,20.144,8.63a8.085,8.085,0,0,1-.228,1.122.746.746,0,0,1-.342.324,3.611,3.611,0,0,0,2.184.424c1.19-.182,1.856-.734,1.856-1.354s-.8-1.09-.8-1.09a8.386,8.386,0,0,0,.5-.88,1.9,1.9,0,0,0,.178-.62,24.1,24.1,0,0,1,2.654-.068c.652.082,1.222.26,1.222.634,0,.67-.812,1.14-.812,1.14s-.67-.684-1.254-.52-1.386.976-1.14,1.628.47,1.45.114,1.742a1.506,1.506,0,0,0,1.254-.032,7,7,0,0,1,1.482-.552,1.517,1.517,0,0,0,.958-1.058c.082-.862-.944-1.058-.944-1.058a4.182,4.182,0,0,0,.438-.584c.228-.36.246-.748.506-.848a1.794,1.794,0,0,1,1.108-.032,16.451,16.451,0,0,1,1.938.552c.684.228,2.134.766,2.134.766L31.769,9.519s-.7-1.336-1.692-1.14-1.336.684-1.336,1.286.146.848-.05,1.222a6.77,6.77,0,0,1-.766.994,3.4,3.4,0,0,0,2.28.894c1.286-.068,2.508-.3,2.978-1.076s.374-1.286.182-1.5a4.237,4.237,0,0,0-1.254-.424s.684-.666.976-.912A.858.858,0,0,1,34.1,8.621a22.263,22.263,0,0,1,4.656,3.092,13.105,13.105,0,0,1-1.2.812c-.21.082-.21.182-.328.032s.31-.734-.456-1.154a2.08,2.08,0,0,0-2.818.374c-.7,1.076-.424,1.4-.716,1.888a4.289,4.289,0,0,1-.944,1.008,2.1,2.1,0,0,0-.456.588,3.168,3.168,0,0,0,1.478.684,6.972,6.972,0,0,1,1.368.032,4.7,4.7,0,0,0,2.586.214c1.012-.328,1.788-.953,1.678-1.792a1.509,1.509,0,0,0-1.468-1.268,3.563,3.563,0,0,1,1.432-.7,1.527,1.527,0,0,1,1.564.524,16.982,16.982,0,0,1,2.558,4.036,3.548,3.548,0,0,1,.018,2.723l-1.14-.424a2.509,2.509,0,0,0,.1-1.87,2.37,2.37,0,0,0-1.92-1.45c-.67.05-1.076.57-1.6.944a4.877,4.877,0,0,1-1.336.748c-.26.05-1.277-.027-1.336.132-.132.342.684,1.058,1.4,1.856a7.434,7.434,0,0,0,2.312,2.116c1.076.524,1.5.47,1.956-.082s.228-2.034.228-2.034a3.878,3.878,0,0,1,.684.228c.424.178.62.146.652.392a8.859,8.859,0,0,1-1.774,4.36,8.2,8.2,0,0,1-2.412,2.125,8.058,8.058,0,0,1-3.448.579,1.213,1.213,0,0,1,.132-.78c.214-.324.31-.456.31-.456a2.243,2.243,0,0,0,2.18-.21,2.328,2.328,0,0,0,.634-2.668,4.732,4.732,0,0,0-1.482-1.482,12.883,12.883,0,0,1-.962-1.14,8.6,8.6,0,0,0-1.072-.862,5.118,5.118,0,0,1-.556,1.578,13.855,13.855,0,0,0-1.952,2.362,1.776,1.776,0,0,0,.246,2.134,1.94,1.94,0,0,0,2.312.132,1.563,1.563,0,0,1-.169.857,4.145,4.145,0,0,1-.5.657s-1.756-.05-3.192-.228a11.5,11.5,0,0,1-1.97-.36s-1.172-2.1-1.318-2.54a1.242,1.242,0,0,1,.082-1.076,2.651,2.651,0,0,1,.438-.616s.538,1.072,1.318,1.2a3.836,3.836,0,0,0,2.654-1.792c.242-.862,0-.766,0-1.5s.164-.958.228-1.742a2.976,2.976,0,0,0-.082-1.564,4.964,4.964,0,0,0-.552-.962,4.222,4.222,0,0,1-.766.912,1.5,1.5,0,0,1-1.122.456c-.506.05-1.742.05-2.262.538a2.546,2.546,0,0,0-.994,2.248,1.435,1.435,0,0,0,.912,1.2,5.258,5.258,0,0,0,.506.21,2.567,2.567,0,0,1-.36.83.937.937,0,0,1-.388.324,10.639,10.639,0,0,1-1.09-1.546,11.555,11.555,0,0,0-.894-1.414,3.114,3.114,0,0,0-.324-.36,2.421,2.421,0,0,0,.114-.73,2.349,2.349,0,0,1,.114-.912c.114-.324.2-.374.2-.374a.819.819,0,0,0,.848.41,2.346,2.346,0,0,0,1.642-1.286,2.411,2.411,0,0,0-.068-2.586,4.066,4.066,0,0,0-1.578-1.514c-.62-.274-1.482-.556-1.482-.556a2.934,2.934,0,0,1-.552.816,13.432,13.432,0,0,0-1.2,1.614,2.052,2.052,0,0,0-.324,1.45,1.507,1.507,0,0,0,.962,1.172,10.13,10.13,0,0,1,1.008.2c.164.1.26.246.182.588s-.114.62-.26.748a1.433,1.433,0,0,1-.31.21,5.562,5.562,0,0,0-1.628-1.318,16.552,16.552,0,0,0-1.938-.88,3.019,3.019,0,0,1-.684-.306,1.224,1.224,0,0,1-.447-.6c-.05-.192-.009-.442.137-.461a1.442,1.442,0,0,0,1.19.05,1.951,1.951,0,0,0,1.236-1.806,2.345,2.345,0,0,0-1.4-2.07,10.709,10.709,0,0,0-1.692-.3,22.64,22.64,0,0,0-2.312-.16,1.553,1.553,0,0,1,.26.716,1.959,1.959,0,0,1-.356,1.254,1.733,1.733,0,0,0-.1,2,1.307,1.307,0,0,0,1.528.456c.374-.132.684-.36.9-.26a.873.873,0,0,1,.324.734.437.437,0,0,1-.342.324c-.178.018-1.774-.128-2.458-.05s-1.592.2-1.592.2A3.718,3.718,0,0,1,14.539,16c-.164-.178-.4-.324-.347-.451s.2-.233.524-.246a1.225,1.225,0,0,0,.848-1.318,2.186,2.186,0,0,0-1.806-2.02,5.179,5.179,0,0,0-2.558.392,4.337,4.337,0,0,1-1.268.6,3.757,3.757,0,0,0-1.222.88s.406.014.8.634.6,1.259.926,1.8a1.65,1.65,0,0,0,2.786.073,2.128,2.128,0,0,1,.506-.534,2.856,2.856,0,0,1,.643.383c.178.182.347.429.1.543s-1.427.625-1.915.912-1.14.7-1.14.7-.6.05-.926.05-1.354-.1-1.354-.1a1.846,1.846,0,0,0,.05-1.6A3.019,3.019,0,0,0,6.554,15.06a4.766,4.766,0,0,0-2.686,1.3c-.684.634-1.154.93-1.45,1.268a3.818,3.818,0,0,0-.848,2.007A5.215,5.215,0,0,1,3,19.311a5.077,5.077,0,0,1,1.97.862,3.15,3.15,0,0,0,1.806.734c.666-.032,1.66-.342,1.824-.962a4.8,4.8,0,0,0,.164-1.108s.88-.05,1.2-.018.6.2.474.374A19.97,19.97,0,0,0,8.6,21.34,11.17,11.17,0,0,1,7.512,23.2a1.717,1.717,0,0,1-.716.046c-.274,0-.634-.032-.634-.032a1,1,0,0,0,.292-.88,2.046,2.046,0,0,0-2-1.268,3,3,0,0,0-2.54,1.154,8.686,8.686,0,0,1-1.2,1.336,3,3,0,0,0-.62,2.376,1.349,1.349,0,0,1,.962-.26,24.032,24.032,0,0,0,2.358.944c.78.114,2.394.146,2.654-1.04S5.9,23.926,5.9,23.926a7.069,7.069,0,0,1,.944-.1c.228.014.456.014.456.014a13.72,13.72,0,0,0-.538,2.116c-.146.994-.342,2.066-.342,2.066a10.029,10.029,0,0,1-.83.7c-.31.21-.7.456-.7.456A1.157,1.157,0,0,0,4.2,27.9,2.956,2.956,0,0,0,.557,29.12c-.926,1.687,0,4.98,0,4.98a2.565,2.565,0,0,1,1.154-.146,4.189,4.189,0,0,0,3-.534c1.012-.766,1.336-1.774.88-2.558a3.442,3.442,0,0,0-.684-.949s.766-.634.976-.8a1.309,1.309,0,0,1,.41-.21s.064,1.938.274,3.274.524,2.622.506,2.768a1.525,1.525,0,0,1-.374.684c-.242.292-.7.766-.7.766s.082-.994-.57-1.323a2.369,2.369,0,0,0-2.818,1.012c-1.318,2.244.392,4.8.392,4.8a1.963,1.963,0,0,1,.912-.538c.456-.068,2.285.132,2.914-.83a1.569,1.569,0,0,0-.584-2.458,3.979,3.979,0,0,1,.424-.766c.228-.292.392-.488.534-.342a10.835,10.835,0,0,1,.734,2.034c.278.912.579,1.7.57,1.842A3.971,3.971,0,0,1,7.772,41.2s-.36-.634-.926-.584a2.415,2.415,0,0,0-1.888,2.33,4.487,4.487,0,0,0,.2.9H8.98Zm24.3,0c-.082-.825-.456-1.569-.146-2.143s1-1.541,1-1.541a2.936,2.936,0,0,0-1.222-.1,11.061,11.061,0,0,1-2.221.3,3.689,3.689,0,0,0-2.44.853,2,2,0,0,0-.611,1.61,1.538,1.538,0,0,0,.593,1.031l5.048-.009Zm5.929,0a3.94,3.94,0,0,0,.789-1.852c.1-.734-.707-1.318-.976-1.71s-.775-.88-.757-1.368a6.229,6.229,0,0,1,.123-1.049s-1.391,1.318-2.1,1.856-2.029,1.614-1.833,3.1a3.01,3.01,0,0,0,.287,1.017H39.18Zm4.109,0c.474-.4.844-.7.949-.775a1.534,1.534,0,0,1,.684-.169c.173-.023,1.122.05,1.122.05a1.972,1.972,0,0,0-.561.885l5.655.014c.1-.16.155-.265.155-.265s-1.172-.169-1.491-.78-.684-1.756-1.806-1.71-1.71,1.441-1.71,1.441-.538.073-.807.073-.588-.027-.488-.219.949-.953,1.614-1.733.9-1.268,1.049-1.364a3.634,3.634,0,0,1,1.026-.1c.173,0,.661.073.611.2a1.059,1.059,0,0,0-.146,1.2A1.993,1.993,0,0,0,51.292,41c.584-.246,1.113-.684,1.514-.83,1.076-.392,1.149-2,1.149-2a2.144,2.144,0,0,1-1.318-.392c-.707-.465-1.345-.99-1.906-.926a1.69,1.69,0,0,0-1.341,1.391c.027.315,0,.538-.269.561s-1.245.023-1.245.023S49,37.11,49.463,36.353s.634-1.2,1.126-1.3a4.063,4.063,0,0,1,1-.05s-.342.78.246,1.172a2.058,2.058,0,0,0,2.367-.661,10.169,10.169,0,0,1,.93-1.318,1.274,1.274,0,0,1-1.049-.269,2.067,2.067,0,0,0-1.537-.757c-1.318.146-.953,1.491-.953,1.491s-.78.146-.9.023-.246-.169.05-.807.839-1.719.976-2c.269-.534,1.3-.511,1.3-.511s-.2.734.415.976a1.126,1.126,0,0,0,1.537-.488c.315-.611.342-1.026.634-1.468a2.239,2.239,0,0,0,.319-1.026,2.156,2.156,0,0,1-.853.169c-.169-.027-.392-.561-1.1-.511a1.107,1.107,0,0,0-1.076.926,3.661,3.661,0,0,0,.219.9s0,.073-.415.246-.684.292-.734.146a10.186,10.186,0,0,1,.269-1.414c.123-.734.169-1.149.415-1.391a7.393,7.393,0,0,1,1.049-.684,1.5,1.5,0,0,0,1.1.611c.611-.05.488-.734.511-1.126a2.931,2.931,0,0,1,.365-1.172c.123-.123-.023-.438-.219-.319a1.638,1.638,0,0,1-.88.219c-.292-.023-.643-.082-.876.2a.819.819,0,0,0-.073,1.172.877.877,0,0,1-.415.342.792.792,0,0,1-.488.027,10.429,10.429,0,0,0,.319-1.61c.05-.661.2-1.277.2-1.541,0-.023.784-.538.784-.538s.219.661.515.634.365-.292.561-.488a1.19,1.19,0,0,0,.269-.93,1.911,1.911,0,0,0-.219-.757s-.023.2-.465.219-.684,0-.953.342.2.661.2.661a.365.365,0,0,1-.169.269,1.676,1.676,0,0,1-.465.2,7.8,7.8,0,0,0,.05-1.468,5.875,5.875,0,0,1-.023-1.172,1.232,1.232,0,0,1,.292-.511l.169-.073s.123.392.342.392.661-.442.611-.707-.123-.83-.415-.926-.634.2-.734.319.073.634.073.634l-.392.315s-.027-.292-.146-1.122-.246-1.564-.246-1.783c0-.023.538-.05.707-.415a1.107,1.107,0,0,0-.2-1.222c-.342-.415-.9-.976-.9-.976a4.232,4.232,0,0,1-.315.93c-.219.438-.511.684-.465,1.049a.728.728,0,0,0,.9.734,8.229,8.229,0,0,1,.219,1.391c.05.734.123,1.487.123,1.487a.976.976,0,0,1-.365-.146,1.261,1.261,0,0,1-.246-.342s.342.05.2-.319-.78-.684-.78-.684a3.322,3.322,0,0,0,0,.949c.073.561.173.757.342.807s.269-.2.269-.2a1.8,1.8,0,0,1,.438.219,1.571,1.571,0,0,1,.2.246s-.023,1.683-.05,2.025a3.62,3.62,0,0,1-.123.661.106.106,0,0,1-.146.023,4.155,4.155,0,0,1-.365-.242.613.613,0,0,1,.023-.515c.146-.219.342-.319.073-.584s-.269-.119-.415-.219a1.949,1.949,0,0,0-.442-.173,8.835,8.835,0,0,0-.246.857c-.1.438-.123.611.027.853s.242.269.415.269a.662.662,0,0,0,.365-.2,2.032,2.032,0,0,1,.488.219,1.081,1.081,0,0,0,.246.146s-.119,1.076-.246,1.637a13.56,13.56,0,0,1-.392,1.318.809.809,0,0,1-.415-.342c-.119-.246-.269-.611-.269-.611a1.03,1.03,0,0,1,.319-.438c.2-.123.365-.219.2-.515a1.1,1.1,0,0,0-.661-.488,2.928,2.928,0,0,1-.611-.392,8.886,8.886,0,0,0-.438,1.1,1.5,1.5,0,0,0,.342,1.268c.342.315.661-.2.661-.2a3.509,3.509,0,0,1,.488.588c.05.146.146.415.146.415a9.628,9.628,0,0,1-.2,1.218,10.753,10.753,0,0,1-.634,1.468,2,2,0,0,1-.392-.438,2.56,2.56,0,0,1-.123-.438s.661-.388.611-.9-.465-.511-.711-.611a3.443,3.443,0,0,1-.684-.488,10.963,10.963,0,0,1-.342,1.149c-.169.438-.474.812-.2,1.149.588.707,1.026.05,1.026.05a5.931,5.931,0,0,1,.415.461,3.13,3.13,0,0,1,.246.392,15.337,15.337,0,0,1-.807,2.007,6.148,6.148,0,0,1-.953,1.318,1.68,1.68,0,0,1-.438-.392,4.206,4.206,0,0,1-.219-.538s1-.242,1.076-.707a1.379,1.379,0,0,0-.465-1.245,5.021,5.021,0,0,1-.734-1.341,6.44,6.44,0,0,0-.976,1.149c-.611.853-1.19,1.769-.584,2.317a.869.869,0,0,0,1.368-.023s.219.319.392.561.415.561.415.561a4.545,4.545,0,0,1-.93,1.883,9.572,9.572,0,0,1-1.172,1.195.767.767,0,0,1-.392-.415c-.055-.164-.146-.488-.146-.488s1.1-.465.976-1.245a2.014,2.014,0,0,0-.707-1.341c-.488-.392-.538-.369-.538-.369a.634.634,0,0,1-.315-.269,2.884,2.884,0,0,1-.1-.634s-.561,1-.949,1.587a2.292,2.292,0,0,0-.2,2.371c.88,1.172,1.514.1,1.514.1s.05.1.269.461.342.611.342.611A9.535,9.535,0,0,1,44.83,40.6a21.793,21.793,0,0,1-2.1,1.783,3.2,3.2,0,0,1-.219-.78,3.215,3.215,0,0,1,.123-.857s1.66-.292,1.906-1.464a1.973,1.973,0,0,0-1.222-2.1A2.8,2.8,0,0,1,41.9,35.81a5.782,5.782,0,0,0-.807,1.468c-.146.584-.538,1.268-.707,1.756s-.351,1.231.169,1.683a1.087,1.087,0,0,0,1.614.073,1.445,1.445,0,0,1,.146.684c-.023.365-.073,1.222-.073,1.222a9.176,9.176,0,0,1-1.2,1.1h2.248Z" transform="translate(-0.051 -0.07)"></path></svg>